# This file uses centimeters as units for non-parametric coordinates.

mtllib soil.mtl
g default
v 1.357974 3.850051 -0.441233
v 1.155162 3.850051 -0.839275
v 0.839274 3.850051 -1.155162
v 0.441232 3.850051 -1.357975
v -0.000000 3.850051 -1.427859
v -0.441233 3.850051 -1.357975
v -0.839274 3.850051 -1.155161
v -1.155161 3.850051 -0.839274
v -1.357974 3.850051 -0.441232
v -1.427858 3.850051 -0.000000
v -1.357974 3.850051 0.441232
v -1.155161 3.850051 0.839274
v -0.839274 3.850051 1.155161
v -0.441232 3.850051 1.357974
v -0.000000 3.850051 1.427858
v 0.441232 3.850051 1.357974
v 0.839274 3.850051 1.155161
v 1.155161 3.850051 0.839274
v 1.357974 3.850051 0.441232
v 1.427858 3.850051 -0.000000
v 0.732159 3.909148 -0.237893
v 0.622812 3.909148 -0.452500
v -0.000000 3.745269 -0.000000
v 0.452499 3.909148 -0.622812
v 0.237893 3.909148 -0.732160
v -0.000000 3.909148 -0.769838
v -0.237893 3.909148 -0.732160
v -0.452500 3.909148 -0.622812
v -0.622812 3.909148 -0.452500
v -0.732160 3.909148 -0.237893
v -0.769838 3.909148 -0.000000
v -0.732160 3.909148 0.237893
v -0.622812 3.909148 0.452499
v -0.452500 3.909148 0.622812
v -0.237893 3.909148 0.732159
v -0.000000 3.909148 0.769837
v 0.237893 3.909148 0.732159
v 0.452499 3.909148 0.622811
v 0.622811 3.909148 0.452499
v 0.732159 3.909148 0.237893
v 0.769837 3.909148 -0.000000
v 1.991035 3.729550 -0.646926
v 1.693676 3.729550 -1.230527
v 1.230527 3.729550 -1.693676
v 0.646926 3.729550 -1.991035
v -0.000000 3.729550 -2.093498
v -0.646926 3.729550 -1.991035
v -1.230527 3.729550 -1.693675
v -1.693675 3.729550 -1.230527
v -1.991034 3.729550 -0.646926
v -2.093497 3.729550 -0.000000
v -1.991034 3.729550 0.646926
v -1.693675 3.729550 1.230527
v -1.230527 3.729550 1.693675
v -0.646926 3.729550 1.991034
v -0.000000 3.729550 2.093497
v 0.646926 3.729550 1.991034
v 1.230527 3.729550 1.693674
v 1.693674 3.729550 1.230527
v 1.991034 3.729550 0.646926
v 2.093497 3.729550 -0.000000
vt 1.100032 1.247588
vt 1.200032 1.247588
vt 0.516396 1.500000
vt 1.300032 1.247588
vt 1.400032 1.247588
vt 1.500032 1.247588
vt 1.600032 1.247588
vt -0.399968 1.247588
vt -0.299968 1.247588
vt -0.199968 1.247588
vt -0.099968 1.247588
vt 0.000032 1.247588
vt 0.100032 1.247588
vt 0.200032 1.247588
vt 0.300032 1.247588
vt 0.400032 1.247588
vt 0.500032 1.247588
vt 0.600032 1.247588
vt 0.700032 1.247588
vt 0.800032 1.247588
vt 0.900032 1.247588
vt 1.000032 1.247588
vt 1.100032 0.926654
vt 1.200032 0.926654
vt 1.200032 1.069557
vt 1.100032 1.069557
vt 1.300032 0.926654
vt 1.300032 1.069557
vt 1.400032 0.926654
vt 1.400032 1.069557
vt 1.500032 0.926654
vt 1.500032 1.069557
vt -0.499968 0.926654
vt -0.399968 0.926654
vt -0.399968 1.069557
vt -0.499968 1.069557
vt -0.299968 0.926654
vt -0.299968 1.069557
vt -0.199968 0.926654
vt -0.199968 1.069557
vt -0.099968 0.926654
vt -0.099968 1.069557
vt 0.000032 0.926654
vt 0.000032 1.069557
vt 0.100032 0.926654
vt 0.100032 1.069557
vt 0.200032 0.926654
vt 0.200032 1.069557
vt 0.300032 0.926654
vt 0.300032 1.069557
vt 0.400032 0.926654
vt 0.400032 1.069557
vt 0.500032 0.926654
vt 0.500032 1.069557
vt 0.600032 0.926654
vt 0.600032 1.069557
vt 0.700032 0.926654
vt 0.700032 1.069557
vt 0.800032 0.926654
vt 0.800032 1.069557
vt 0.900032 0.926654
vt 0.900032 1.069557
vt 1.000032 0.926654
vt 1.000032 1.069557
vt -0.499968 1.247588
vn -0.198019 0.978084 0.064340
vn -0.168445 0.978084 0.122382
vn -0.000000 1.000000 0.000000
vn -0.122382 0.978084 0.168445
vn -0.064340 0.978084 0.198019
vn 0.000000 0.978084 0.208209
vn 0.064340 0.978084 0.198019
vn 0.122382 0.978084 0.168445
vn 0.168445 0.978084 0.122382
vn 0.198019 0.978084 0.064340
vn 0.208209 0.978084 0.000000
vn 0.198019 0.978084 -0.064340
vn 0.168445 0.978084 -0.122382
vn 0.122382 0.978084 -0.168445
vn 0.064340 0.978084 -0.198019
vn 0.000000 0.978084 -0.208209
vn -0.064340 0.978084 -0.198019
vn -0.122382 0.978084 -0.168445
vn -0.168445 0.978084 -0.122382
vn -0.198019 0.978084 -0.064340
vn -0.208209 0.978084 -0.000000
vn 0.160633 0.983615 -0.081847
vn 0.160633 0.983615 -0.081847
vn 0.160633 0.983615 -0.081847
vn 0.160633 0.983615 -0.081847
vn 0.127479 0.983615 -0.127479
vn 0.127479 0.983615 -0.127479
vn 0.127479 0.983615 -0.127479
vn 0.127479 0.983615 -0.127479
vn 0.081847 0.983615 -0.160633
vn 0.081847 0.983615 -0.160633
vn 0.081847 0.983615 -0.160633
vn 0.081847 0.983615 -0.160633
vn 0.028202 0.983615 -0.178064
vn 0.028202 0.983615 -0.178064
vn 0.028202 0.983615 -0.178064
vn 0.028202 0.983615 -0.178064
vn -0.028202 0.983615 -0.178064
vn -0.028202 0.983615 -0.178064
vn -0.028202 0.983615 -0.178064
vn -0.028202 0.983615 -0.178064
vn -0.081847 0.983615 -0.160633
vn -0.081847 0.983615 -0.160633
vn -0.081847 0.983615 -0.160633
vn -0.081847 0.983615 -0.160633
vn -0.127479 0.983615 -0.127479
vn -0.127479 0.983615 -0.127479
vn -0.127479 0.983615 -0.127479
vn -0.127479 0.983615 -0.127479
vn -0.160634 0.983615 -0.081847
vn -0.160634 0.983615 -0.081847
vn -0.160634 0.983615 -0.081847
vn -0.160633 0.983615 -0.081847
vn -0.178064 0.983615 -0.028203
vn -0.178064 0.983615 -0.028203
vn -0.178064 0.983615 -0.028203
vn -0.178064 0.983615 -0.028203
vn -0.178063 0.983615 0.028203
vn -0.178063 0.983615 0.028203
vn -0.178063 0.983615 0.028203
vn -0.178063 0.983615 0.028203
vn -0.160634 0.983615 0.081847
vn -0.160634 0.983615 0.081847
vn -0.160633 0.983615 0.081847
vn -0.160633 0.983615 0.081847
vn -0.127479 0.983615 0.127479
vn -0.127479 0.983615 0.127479
vn -0.127479 0.983615 0.127479
vn -0.127479 0.983615 0.127479
vn -0.081847 0.983615 0.160633
vn -0.081847 0.983615 0.160633
vn -0.081847 0.983615 0.160633
vn -0.081847 0.983615 0.160633
vn -0.028203 0.983615 0.178064
vn -0.028203 0.983615 0.178064
vn -0.028202 0.983615 0.178063
vn -0.028202 0.983615 0.178063
vn 0.028202 0.983615 0.178063
vn 0.028202 0.983615 0.178063
vn 0.028202 0.983615 0.178064
vn 0.028202 0.983615 0.178064
vn 0.081847 0.983615 0.160633
vn 0.081847 0.983615 0.160633
vn 0.081847 0.983615 0.160633
vn 0.081847 0.983615 0.160633
vn 0.127479 0.983615 0.127479
vn 0.127479 0.983615 0.127479
vn 0.127479 0.983615 0.127479
vn 0.127479 0.983615 0.127479
vn 0.160633 0.983615 0.081847
vn 0.160633 0.983615 0.081847
vn 0.160633 0.983615 0.081847
vn 0.160633 0.983615 0.081847
vn 0.178064 0.983615 0.028202
vn 0.178064 0.983615 0.028202
vn 0.178064 0.983615 0.028202
vn 0.178064 0.983615 0.028202
vn 0.178064 0.983615 -0.028202
vn 0.178064 0.983615 -0.028202
vn 0.178064 0.983615 -0.028202
vn 0.178064 0.983615 -0.028202
vn 0.080687 0.995891 -0.041112
vn 0.080687 0.995891 -0.041112
vn 0.080687 0.995891 -0.041112
vn 0.080687 0.995891 -0.041112
vn 0.064033 0.995891 -0.064033
vn 0.064033 0.995891 -0.064033
vn 0.064033 0.995891 -0.064033
vn 0.064033 0.995891 -0.064033
vn 0.041112 0.995891 -0.080687
vn 0.041112 0.995891 -0.080687
vn 0.041112 0.995891 -0.080687
vn 0.041112 0.995891 -0.080687
vn 0.014166 0.995891 -0.089442
vn 0.014166 0.995891 -0.089442
vn 0.014166 0.995891 -0.089442
vn 0.014166 0.995891 -0.089442
vn -0.014166 0.995891 -0.089442
vn -0.014166 0.995891 -0.089442
vn -0.014166 0.995891 -0.089442
vn -0.014166 0.995891 -0.089442
vn -0.041112 0.995891 -0.080687
vn -0.041112 0.995891 -0.080687
vn -0.041112 0.995891 -0.080687
vn -0.041112 0.995891 -0.080687
vn -0.064033 0.995891 -0.064033
vn -0.064033 0.995891 -0.064033
vn -0.064033 0.995891 -0.064033
vn -0.064033 0.995891 -0.064033
vn -0.080687 0.995891 -0.041112
vn -0.080687 0.995891 -0.041112
vn -0.080687 0.995891 -0.041112
vn -0.080687 0.995891 -0.041112
vn -0.089442 0.995891 -0.014166
vn -0.089442 0.995891 -0.014166
vn -0.089442 0.995891 -0.014166
vn -0.089442 0.995891 -0.014166
vn -0.089442 0.995891 0.014166
vn -0.089442 0.995891 0.014166
vn -0.089442 0.995891 0.014166
vn -0.089442 0.995891 0.014166
vn -0.080687 0.995891 0.041112
vn -0.080687 0.995891 0.041112
vn -0.080687 0.995891 0.041112
vn -0.080686 0.995891 0.041112
vn -0.064033 0.995891 0.064033
vn -0.064033 0.995891 0.064033
vn -0.064033 0.995891 0.064033
vn -0.064033 0.995891 0.064033
vn -0.041112 0.995891 0.080687
vn -0.041112 0.995891 0.080687
vn -0.041112 0.995891 0.080687
vn -0.041112 0.995891 0.080687
vn -0.014166 0.995891 0.089442
vn -0.014166 0.995891 0.089442
vn -0.014166 0.995891 0.089442
vn -0.014166 0.995891 0.089442
vn 0.014166 0.995891 0.089442
vn 0.014166 0.995891 0.089442
vn 0.014166 0.995891 0.089442
vn 0.014166 0.995891 0.089442
vn 0.041112 0.995891 0.080687
vn 0.041112 0.995891 0.080687
vn 0.041112 0.995891 0.080687
vn 0.041112 0.995891 0.080686
vn 0.064033 0.995891 0.064033
vn 0.064033 0.995891 0.064033
vn 0.064033 0.995891 0.064033
vn 0.064033 0.995891 0.064033
vn 0.080687 0.995891 0.041112
vn 0.080687 0.995891 0.041112
vn 0.080687 0.995891 0.041112
vn 0.080687 0.995891 0.041112
vn 0.089442 0.995891 0.014166
vn 0.089442 0.995891 0.014166
vn 0.089442 0.995891 0.014166
vn 0.089442 0.995891 0.014166
vn 0.089442 0.995891 -0.014166
vn 0.089442 0.995891 -0.014166
vn 0.089442 0.995891 -0.014166
vn 0.089442 0.995891 -0.014166
s 1
g polySurface2 pCylinder1
usemtl lambert2SG
f 21/1/1 22/2/2 23/3/3
f 22/2/2 24/4/4 23/3/3
f 24/4/4 25/5/5 23/3/3
f 25/5/5 26/6/6 23/3/3
f 26/6/6 27/7/7 23/3/3
f 27/8/7 28/9/8 23/3/3
f 28/9/8 29/10/9 23/3/3
f 29/10/9 30/11/10 23/3/3
f 30/11/10 31/12/11 23/3/3
f 31/12/11 32/13/12 23/3/3
f 32/13/12 33/14/13 23/3/3
f 33/14/13 34/15/14 23/3/3
f 34/15/14 35/16/15 23/3/3
f 35/16/15 36/17/16 23/3/3
f 36/17/16 37/18/17 23/3/3
f 37/18/17 38/19/18 23/3/3
f 38/19/18 39/20/19 23/3/3
f 39/20/19 40/21/20 23/3/3
f 40/21/20 41/22/21 23/3/3
f 41/22/21 21/1/1 23/3/3
s 2
f 42/23/22 43/24/23 1/26/24
f 1/26/24 43/24/23 2/25/25
s 3
f 43/24/26 44/27/27 2/25/28
f 2/25/28 44/27/27 3/28/29
s 4
f 44/27/30 45/29/31 3/28/32
f 3/28/32 45/29/31 4/30/33
s 5
f 45/29/34 46/31/35 4/30/36
f 4/30/36 46/31/35 5/32/37
s 6
f 46/33/38 47/34/39 5/36/40
f 5/36/40 47/34/39 6/35/41
s 7
f 47/34/42 48/37/43 6/35/44
f 6/35/44 48/37/43 7/38/45
s 8
f 48/37/46 49/39/47 7/38/48
f 7/38/48 49/39/47 8/40/49
s 9
f 49/39/50 50/41/51 8/40/52
f 8/40/52 50/41/51 9/42/53
s 10
f 50/41/54 51/43/55 9/42/56
f 9/42/56 51/43/55 10/44/57
s 11
f 51/43/58 52/45/59 10/44/60
f 10/44/60 52/45/59 11/46/61
s 12
f 52/45/62 53/47/63 11/46/64
f 11/46/64 53/47/63 12/48/65
s 13
f 53/47/66 54/49/67 12/48/68
f 12/48/68 54/49/67 13/50/69
s 14
f 54/49/70 55/51/71 13/50/72
f 13/50/72 55/51/71 14/52/73
s 15
f 55/51/74 56/53/75 14/52/76
f 14/52/76 56/53/75 15/54/77
s 16
f 56/53/78 57/55/79 15/54/80
f 15/54/80 57/55/79 16/56/81
s 17
f 57/55/82 58/57/83 16/56/84
f 16/56/84 58/57/83 17/58/85
s 18
f 58/57/86 59/59/87 17/58/88
f 17/58/88 59/59/87 18/60/89
s 19
f 59/59/90 60/61/91 18/60/92
f 18/60/92 60/61/91 19/62/93
s 20
f 60/61/94 61/63/95 19/62/96
f 19/62/96 61/63/95 20/64/97
s 21
f 61/63/98 42/23/99 20/64/100
f 20/64/100 42/23/99 1/26/101
s 22
f 1/26/102 2/25/103 21/1/104
f 21/1/104 2/25/103 22/2/105
s 23
f 2/25/106 3/28/107 22/2/108
f 22/2/108 3/28/107 24/4/109
s 24
f 3/28/110 4/30/111 24/4/112
f 24/4/112 4/30/111 25/5/113
s 25
f 4/30/114 5/32/115 25/5/116
f 25/5/116 5/32/115 26/6/117
s 26
f 5/36/118 6/35/119 26/65/120
f 26/65/120 6/35/119 27/8/121
s 27
f 6/35/122 7/38/123 27/8/124
f 27/8/124 7/38/123 28/9/125
s 28
f 7/38/126 8/40/127 28/9/128
f 28/9/128 8/40/127 29/10/129
s 29
f 8/40/130 9/42/131 29/10/132
f 29/10/132 9/42/131 30/11/133
s 30
f 9/42/134 10/44/135 30/11/136
f 30/11/136 10/44/135 31/12/137
s 31
f 10/44/138 11/46/139 31/12/140
f 31/12/140 11/46/139 32/13/141
s 32
f 11/46/142 12/48/143 32/13/144
f 32/13/144 12/48/143 33/14/145
s 33
f 12/48/146 13/50/147 33/14/148
f 33/14/148 13/50/147 34/15/149
s 34
f 13/50/150 14/52/151 34/15/152
f 34/15/152 14/52/151 35/16/153
s 35
f 14/52/154 15/54/155 35/16/156
f 35/16/156 15/54/155 36/17/157
s 36
f 15/54/158 16/56/159 36/17/160
f 36/17/160 16/56/159 37/18/161
s 37
f 16/56/162 17/58/163 37/18/164
f 37/18/164 17/58/163 38/19/165
s 38
f 17/58/166 18/60/167 38/19/168
f 38/19/168 18/60/167 39/20/169
s 39
f 18/60/170 19/62/171 39/20/172
f 39/20/172 19/62/171 40/21/173
s 40
f 19/62/174 20/64/175 40/21/176
f 40/21/176 20/64/175 41/22/177
s 41
f 20/64/178 1/26/179 41/22/180
f 41/22/180 1/26/179 21/1/181
